<svg xmlns="http://www.w3.org/2000/svg" width="37" height="37" viewBox="0 0 37 37">
  <g id="_113" data-name="113" transform="translate(-189.778 -487)">
    <g id="Path_27" data-name="Path 27" transform="translate(189.778 487)" fill="none">
      <path d="M7,0H30a7,7,0,0,1,7,7V30a7,7,0,0,1-7,7H7a7,7,0,0,1-7-7V7A7,7,0,0,1,7,0Z" stroke="none"/>
      <path d="M 7 2 C 4.242988586425781 2 2 4.242988586425781 2 7 L 2 30 C 2 32.75701141357422 4.242988586425781 35 7 35 L 30 35 C 32.75701141357422 35 35 32.75701141357422 35 30 L 35 7 C 35 4.242988586425781 32.75701141357422 2 30 2 L 7 2 M 7 0 L 30 0 C 33.86598968505859 0 37 3.134010314941406 37 7 L 37 30 C 37 33.86598968505859 33.86598968505859 37 30 37 L 7 37 C 3.134010314941406 37 0 33.86598968505859 0 30 L 0 7 C 0 3.134010314941406 3.134010314941406 0 7 0 Z" stroke="none" fill="#8ec31c"/>
    </g>
    <text id="_113-2" data-name="113" transform="translate(208.278 512.5)" fill="#8ec31c" font-size="18" font-family="HelveticaNeue-Bold, Helvetica Neue" font-weight="700"><tspan x="-15.012" y="0">113</tspan></text>
  </g>
</svg>
