<svg xmlns="http://www.w3.org/2000/svg" width="38" height="38" viewBox="0 0 38 38">
  <g id="atm" transform="translate(-2133 -642)">
    <g id="Group_78" data-name="Group 78" transform="translate(523.139 517.248)">
      <path id="Path_15" data-name="Path 15" d="M1646.75,174v15.673h9.974V174Zm5.521,11.605v1.159h-.985v-1.118a3.719,3.719,0,0,1-1.976-.867l.648-.988a2.675,2.675,0,0,0,1.646.677c.7,0,1.019-.309,1.019-.876,0-1.346-3.035-1.228-3.035-3.313a1.963,1.963,0,0,1,1.7-2.035v-1.156h.985v1.137a2.753,2.753,0,0,1,1.658.907l-.739.838a1.776,1.776,0,0,0-1.278-.589c-.589,0-.917.28-.917.829,0,1.237,3.032,1.047,3.032,3.282A2.019,2.019,0,0,1,1652.271,185.605Z" transform="translate(-22.876 -32.953)" fill="#1e7ab8"/>
      <g id="Group_61" data-name="Group 61" transform="translate(1616.75 138.316)">
        <path id="Path_16" data-name="Path 16" d="M1640.972,163.806v7.362a1.308,1.308,0,0,1-1.306,1.306h-4.393v-1.425h4.275v-7.124h-21.372v7.124h4.274v1.425h-4.393a1.308,1.308,0,0,1-1.306-1.306v-7.362a1.308,1.308,0,0,1,1.306-1.306h21.61A1.308,1.308,0,0,1,1640.972,163.806Z" transform="translate(-1616.75 -162.5)" fill="#1e7ab8"/>
      </g>
      <g id="Group_62" data-name="Group 62" transform="translate(1620.55 130.784)">
        <path id="Path_17" data-name="Path 17" d="M1636.506,134.309h-2.039l-.442,1.218h-1.275l2.014-4.743h1.478l2.022,4.743h-1.317Zm-.272-.737-.187-.519c-.2-.494-.365-1.038-.552-1.551h-.034c-.162.519-.349,1.057-.536,1.551l-.187.519Z" transform="translate(-1632.75 -130.784)" fill="#1e7ab8"/>
        <path id="Path_18" data-name="Path 18" d="M1655.92,131.572h-1.767v-.788h4.809v.788h-1.784v3.955h-1.257Z" transform="translate(-1649.07 -130.784)" fill="#1e7ab8"/>
        <path id="Path_19" data-name="Path 19" d="M1678.7,130.784h1.394l1.07,2.218c.136.295.255.609.382.916h.042c.136-.308.246-.622.382-.916l1.045-2.218h1.394v4.743h-1.147v-1.981a13.845,13.845,0,0,1,.153-1.558h-.034l-.51,1.116-.969,1.993h-.722l-.977-1.993-.5-1.116h-.034a13.811,13.811,0,0,1,.161,1.558v1.981h-1.13Z" transform="translate(-1667.791 -130.784)" fill="#1e7ab8"/>
      </g>
    </g>
    <rect id="Rectangle_24" data-name="Rectangle 24" width="38" height="38" transform="translate(2133 642)" fill="none"/>
  </g>
</svg>
