<svg xmlns="http://www.w3.org/2000/svg" width="37" height="37" viewBox="0 0 37 37">
  <g id="exit_3" transform="translate(-15.521 -309.006)">
    <path id="Path_6" data-name="Path 6" d="M859.521-11.994v37l37-37Z" transform="translate(-844 321)" fill="#ffc440"/>
    <g id="Path_48" data-name="Path 48" transform="translate(24.68 337.619)" fill="#fff">
      <path d="M 9.52978515625 0.6606472730636597 C 7.302974700927734 0.6606472730636597 5.377134799957275 0.06978726387023926 3.960434913635254 -1.048062682151794 C 2.559114933013916 -2.153782844543457 1.744864821434021 -3.694372653961182 1.605724811553955 -5.503292560577393 L 1.591684818267822 -5.671622753143311 L 1.569124817848206 -5.9423828125 L 1.840824842453003 -5.9423828125 L 5.324214935302734 -5.9423828125 L 5.552515029907227 -5.9423828125 L 5.573184967041016 -5.715012550354004 L 5.587055683135986 -5.562432289123535 C 5.678248882293701 -4.774401187896729 6.082968235015869 -4.099825859069824 6.757595062255859 -3.61158275604248 C 7.466684818267822 -3.098402738571167 8.425294876098633 -2.827152729034424 9.52978515625 -2.827152729034424 C 11.7348051071167 -2.827152729034424 13.21630477905273 -4.0184326171875 13.21630477905273 -5.791502952575684 L 13.21630477905273 -5.819822788238525 C 13.21630477905273 -6.801612854003906 12.87162494659424 -7.569092750549316 12.19183444976807 -8.100953102111816 C 11.51399517059326 -8.631302833557129 10.50043487548828 -8.911623001098633 9.260745048522949 -8.911623001098633 L 6.853514671325684 -8.911623001098633 L 6.603514671325684 -8.911623001098633 L 6.603514671325684 -9.161623001098633 L 6.603514671325684 -11.88037300109863 L 6.603514671325684 -12.13037300109863 L 6.853514671325684 -12.13037300109863 L 9.189945220947266 -12.13037300109863 C 10.22866439819336 -12.13037300109863 11.11440467834473 -12.40807247161865 11.7513952255249 -12.93346309661865 C 12.36699485778809 -13.44121265411377 12.69238471984863 -14.13470268249512 12.69238471984863 -14.93896293640137 L 12.69238471984863 -14.96728229522705 C 12.69238471984863 -16.69819259643555 11.52933502197266 -17.6909122467041 9.50146484375 -17.6909122467041 C 7.467494964599609 -17.6909122467041 6.097825050354004 -16.63767242431641 5.92696475982666 -14.94221305847168 L 5.912824630737305 -14.80080318450928 L 5.890315055847168 -14.57568264007568 L 5.664064884185791 -14.57568264007568 L 2.265624761581421 -14.57568264007568 L 1.991864800453186 -14.57568264007568 L 2.01665472984314 -14.84831237792969 L 2.03081488609314 -15.00407314300537 C 2.356324911117554 -18.70313262939453 5.288754940032959 -21.09375190734863 9.50146484375 -21.09375190734863 C 13.80111503601074 -21.09375190734863 16.68994522094727 -18.82519340515137 16.68994522094727 -15.44873237609863 L 16.68994522094727 -15.42041301727295 C 16.68994522094727 -13.23135375976562 15.36867332458496 -11.49523830413818 13.1785306930542 -10.71507835388184 C 15.81534862518311 -10.13256454467773 17.41210556030273 -8.285003662109375 17.41210556030273 -5.720702648162842 L 17.41210556030273 -5.6923828125 C 17.41210556030273 -3.872452735900879 16.62706565856934 -2.240482807159424 15.201584815979 -1.097092747688293 C 13.76796531677246 0.05282726511359215 11.80668449401855 0.6606472730636597 9.52978515625 0.6606472730636597 Z" stroke="none"/>
      <path d="M 9.52978515625 0.4106472730636597 C 14.06103515625 0.4106472730636597 17.16210556030273 -2.095702648162842 17.16210556030273 -5.6923828125 L 17.16210556030273 -5.720702648162842 C 17.16210556030273 -8.552732467651367 15.16552448272705 -10.33691310882568 12.16357517242432 -10.62011241912842 L 12.16357517242432 -10.69092273712158 C 14.61328506469727 -11.20068264007568 16.43994522094727 -12.88574314117432 16.43994522094727 -15.42041301727295 L 16.43994522094727 -15.44873237609863 C 16.43994522094727 -18.64892196655273 13.70703506469727 -20.84375190734863 9.50146484375 -20.84375190734863 C 5.380854606628418 -20.84375190734863 2.591304779052734 -18.52148246765137 2.279784917831421 -14.98144245147705 L 2.265624761581421 -14.82568264007568 L 5.664064884185791 -14.82568264007568 L 5.678225040435791 -14.96728229522705 C 5.8623046875 -16.79394340515137 7.349124908447266 -17.9409122467041 9.50146484375 -17.9409122467041 C 11.68212509155273 -17.9409122467041 12.94238471984863 -16.83642196655273 12.94238471984863 -14.96728229522705 L 12.94238471984863 -14.93896293640137 C 12.94238471984863 -13.15478229522705 11.44140529632568 -11.88037300109863 9.189945220947266 -11.88037300109863 L 6.853514671325684 -11.88037300109863 L 6.853514671325684 -9.161623001098633 L 9.260745048522949 -9.161623001098633 C 11.88037490844727 -9.161623001098633 13.46630477905273 -7.972172737121582 13.46630477905273 -5.819822788238525 L 13.46630477905273 -5.791502952575684 C 13.46630477905273 -3.894042730331421 11.89453506469727 -2.577152729034424 9.52978515625 -2.577152729034424 C 7.136714935302734 -2.577152729034424 5.536624908447266 -3.809082746505737 5.338374614715576 -5.536622524261475 L 5.324214935302734 -5.6923828125 L 1.840824842453003 -5.6923828125 L 1.854984879493713 -5.522462844848633 C 2.124024868011475 -2.024902820587158 5.055174827575684 0.4106472730636597 9.52978515625 0.4106472730636597 M 9.52978515625 0.9106472730636597 C 7.246224880218506 0.9106472730636597 5.266824722290039 0.3012072741985321 3.805574893951416 -0.8518027067184448 C 2.347994804382324 -2.001912832260132 1.501104831695557 -3.603742837905884 1.356454849243164 -5.484112739562988 L 1.342554807662964 -5.650862693786621 L 1.297424793243408 -6.1923828125 L 1.840824842453003 -6.1923828125 L 5.324214935302734 -6.1923828125 L 5.780824661254883 -6.1923828125 L 5.822165012359619 -5.737652778625488 L 5.835774898529053 -5.58794116973877 C 6.014098644256592 -4.062427043914795 7.463320255279541 -3.077152729034424 9.52978515625 -3.077152729034424 C 11.5852746963501 -3.077152729034424 12.96630477905273 -4.167962551116943 12.96630477905273 -5.791502952575684 L 12.96630477905273 -5.819822788238525 C 12.96630477905273 -6.881142616271973 12.48489475250244 -8.661623001098633 9.260745048522949 -8.661623001098633 L 6.853514671325684 -8.661623001098633 L 6.353514671325684 -8.661623001098633 L 6.353514671325684 -9.161623001098633 L 6.353514671325684 -11.88037300109863 L 6.353514671325684 -12.38037300109863 L 6.853514671325684 -12.38037300109863 L 9.189945220947266 -12.38037300109863 C 11.13532447814941 -12.38037300109863 12.44238471984863 -13.40859317779541 12.44238471984863 -14.93896293640137 L 12.44238471984863 -14.96728229522705 C 12.44238471984863 -15.89110279083252 12.06031513214111 -17.4409122467041 9.50146484375 -17.4409122467041 C 7.606935024261475 -17.4409122467041 6.332584857940674 -16.47386360168457 6.175704956054688 -14.91715240478516 L 6.161584854125977 -14.77593231201172 L 6.116554737091064 -14.32568264007568 L 5.664064884185791 -14.32568264007568 L 2.265624761581421 -14.32568264007568 L 1.718104839324951 -14.32568264007568 L 1.767674803733826 -14.87095260620117 L 1.781834840774536 -15.02671241760254 C 2.1194748878479 -18.86360359191895 5.149664878845215 -21.34375190734863 9.50146484375 -21.34375190734863 C 11.66752529144287 -21.34375190734863 13.51926517486572 -20.7890625 14.85647487640381 -19.73965263366699 C 16.20002555847168 -18.68527221679688 16.93994522094727 -17.16139221191406 16.93994522094727 -15.44873237609863 L 16.93994522094727 -15.42041301727295 C 16.93994522094727 -14.08442306518555 16.47059440612793 -12.8849630355835 15.58264446258545 -11.95168304443359 C 15.12793827056885 -11.4737663269043 14.5741548538208 -11.075119972229 13.94215679168701 -10.76675796508789 C 16.27494812011719 -10.00245475769043 17.66210556030273 -8.174848556518555 17.66210556030273 -5.720702648162842 L 17.66210556030273 -5.6923828125 C 17.66210556030273 -1.804612755775452 14.31797504425049 0.9106472730636597 9.52978515625 0.9106472730636597 Z" stroke="none" fill="#000"/>
    </g>
  </g>
</svg>
