<svg xmlns="http://www.w3.org/2000/svg" width="37" height="37" viewBox="0 0 37 37">
  <g id="exit_2" transform="translate(-15.521 -309.006)">
    <path id="Path_6" data-name="Path 6" d="M859.521-11.994v37l37-37Z" transform="translate(-844 321)" fill="#ffc440"/>
    <path id="Path_54" data-name="Path 54" d="M859.521,25.006l37-37Z" transform="translate(912.041 334.012) rotate(180)" fill="#fff"/>
    <g id="Path_49" data-name="Path 49" transform="translate(24.581 337.619)" fill="#fff">
      <path d="M 16.57666015625 0.2500044405460358 L 16.32666015625 0.2500044405460358 L 2.138180732727051 0.2500044405460358 L 1.888180732727051 0.2500044405460358 L 1.888180732727051 4.453124802239472e-06 L 1.888180732727051 -2.463865518569946 L 1.888180732727051 -2.565895557403564 L 1.9595707654953 -2.638785600662231 L 8.671490669250488 -9.492305755615234 C 11.3700008392334 -12.21836566925049 12.15430068969727 -13.2358455657959 12.15430068969727 -14.72656536102295 L 12.15430068969727 -14.76904582977295 C 12.15430068969727 -16.5870246887207 10.91291046142578 -17.76171493530273 8.991701126098633 -17.76171493530273 C 6.973011016845703 -17.76171493530273 5.616700649261475 -16.43954467773438 5.616700649261475 -14.47167587280273 L 5.616700649261475 -14.44089508056641 L 5.609241008758545 -14.41104507446289 L 5.595080852508545 -14.35440540313721 L 5.547530651092529 -14.16422557830811 L 5.351500988006592 -14.16503524780273 L 1.953060746192932 -14.17919540405273 L 1.773660778999329 -14.17994594573975 L 1.716930747032166 -14.35013580322266 L 1.702770829200745 -14.39261531829834 L 1.689940810203552 -14.4311056137085 L 1.689940810203552 -14.47167587280273 C 1.689940810203552 -18.42901611328125 4.76823091506958 -21.19287490844727 9.17578125 -21.19287490844727 C 11.16371059417725 -21.19287490844727 12.9657506942749 -20.58888626098633 14.24994087219238 -19.4921760559082 C 15.54946041107178 -18.38236618041992 16.26514053344727 -16.81562614440918 16.26514053344727 -15.08056545257568 L 16.26514053344727 -15.0380859375 C 16.26514053344727 -12.6206750869751 15.0697603225708 -10.69478511810303 11.34568119049072 -7.112305641174316 L 7.390479564666748 -3.280275583267212 L 16.32666015625 -3.280275583267212 L 16.57666015625 -3.280275583267212 L 16.57666015625 -3.030275583267212 L 16.57666015625 4.453124802239472e-06 L 16.57666015625 0.2500044405460358 Z" stroke="none"/>
      <path d="M 16.32666015625 4.453124802239472e-06 L 16.32666015625 -3.030275583267212 L 7.080080986022949 -3.030275583267212 L 7.080080986022949 -3.327635526657104 L 11.17236042022705 -7.292475700378418 C 14.89648056030273 -10.87499523162842 16.01514053344727 -12.71581554412842 16.01514053344727 -15.0380859375 L 16.01514053344727 -15.08056545257568 C 16.01514053344727 -18.52148628234863 13.15478038787842 -20.94287490844727 9.17578125 -20.94287490844727 C 4.913570880889893 -20.94287490844727 1.939940810203552 -18.28076553344727 1.939940810203552 -14.47167587280273 L 1.954100728034973 -14.42919540405273 L 5.352540969848633 -14.41503524780273 L 5.366700649261475 -14.47167587280273 C 5.366700649261475 -16.58154487609863 6.825190544128418 -18.01171493530273 8.991701126098633 -18.01171493530273 C 11.11572074890137 -18.01171493530273 12.40430068969727 -16.65234565734863 12.40430068969727 -14.76904582977295 L 12.40430068969727 -14.72656536102295 C 12.40430068969727 -13.15478515625 11.62549114227295 -12.12109565734863 8.850100517272949 -9.317385673522949 L 2.138180732727051 -2.463865518569946 L 2.138180732727051 4.453124802239472e-06 L 16.32666015625 4.453124802239472e-06 M 16.82666015625 0.5000044703483582 L 16.32666015625 0.5000044703483582 L 2.138180732727051 0.5000044703483582 L 1.638180732727051 0.5000044703483582 L 1.638180732727051 4.453124802239472e-06 L 1.638180732727051 -2.463865518569946 L 1.638180732727051 -2.667925596237183 L 1.78096079826355 -2.813705444335938 L 8.492880821228027 -9.66722583770752 C 11.29887104034424 -12.50186538696289 11.90430068969727 -13.39991569519043 11.90430068969727 -14.72656536102295 L 11.90430068969727 -14.76904582977295 C 11.90430068969727 -16.43515586853027 10.76104068756104 -17.51171493530273 8.991701126098633 -17.51171493530273 C 8.06273078918457 -17.51171493530273 7.2759108543396 -17.22251510620117 6.716310977935791 -16.67538642883301 C 6.160490989685059 -16.13195610046387 5.866700649261475 -15.3699254989624 5.866700649261475 -14.47167587280273 L 5.866700649261475 -14.41012573242188 L 5.851770877838135 -14.3504056930542 L 5.837610721588135 -14.29376602172852 L 5.742520809173584 -13.913405418396 L 5.350461006164551 -13.91503524780273 L 1.952020764350891 -13.92919540405273 L 1.593220829963684 -13.93069553375244 L 1.479760766029358 -14.27108573913574 L 1.465600728988647 -14.31356525421143 L 1.439940810203552 -14.39053535461426 L 1.439940810203552 -14.47167587280273 C 1.439940810203552 -16.45840644836426 2.216360807418823 -18.24712562561035 3.626160860061646 -19.50833511352539 C 5.020660877227783 -20.75584602355957 6.991560935974121 -21.44287490844727 9.17578125 -21.44287490844727 C 11.22319030761719 -21.44287490844727 13.08288097381592 -20.8176155090332 14.41229057312012 -19.68228530883789 C 15.76834106445312 -18.52420616149902 16.51514053344727 -16.88994598388672 16.51514053344727 -15.08056545257568 L 16.51514053344727 -15.0380859375 C 16.51514053344727 -12.54012584686279 15.30112075805664 -10.57045555114746 11.51900100708008 -6.932135581970215 L 8.007796287536621 -3.530275583267212 L 16.32666015625 -3.530275583267212 L 16.82666015625 -3.530275583267212 L 16.82666015625 -3.030275583267212 L 16.82666015625 4.453124802239472e-06 L 16.82666015625 0.5000044703483582 Z" stroke="none" fill="#000"/>
    </g>
  </g>
</svg>
