<svg xmlns="http://www.w3.org/2000/svg" width="37" height="37" viewBox="0 0 37 37">
  <g id="exit_3" transform="translate(-15.521 -309.006)">
    <path id="Path_6" data-name="Path 6" d="M859.521-11.994v37l37-37Z" transform="translate(-844 321)" fill="#ffc440"/>
    <path id="Path_48" data-name="Path 48" d="M9.53.411c4.531,0,7.632-2.506,7.632-6.1v-.028c0-2.832-2-4.616-5-4.9v-.071c2.45-.51,4.276-2.195,4.276-4.729v-.028c0-3.2-2.733-5.4-6.938-5.4-4.121,0-6.91,2.322-7.222,5.862l-.014.156h3.4l.014-.142c.184-1.827,1.671-2.974,3.823-2.974,2.181,0,3.441,1.1,3.441,2.974v.028c0,1.784-1.5,3.059-3.752,3.059H6.854v2.719H9.261c2.62,0,4.206,1.189,4.206,3.342v.028c0,1.9-1.572,3.214-3.937,3.214-2.393,0-3.993-1.232-4.191-2.959l-.014-.156H1.841l.014.17C2.124-2.025,5.055.411,9.53.411Z" transform="translate(24.68 337.619)" fill="#2e2e2e"/>
  </g>
</svg>
