<svg xmlns="http://www.w3.org/2000/svg" width="38" height="38" viewBox="0 0 38 38">
  <g id="ibike" transform="translate(-1849 -642)">
    <g id="Group_70" data-name="Group 70" transform="translate(1019.557 522)">
      <g id="Group_66" data-name="Group 66" transform="translate(852.181 126)">
        <circle id="Ellipse_34" data-name="Ellipse 34" cx="2.301" cy="2.301" r="2.301" transform="translate(0 0)" fill="#1e7ab8"/>
      </g>
      <g id="Group_67" data-name="Group 67" transform="translate(842.868 129.975)">
        <path id="Path_24" data-name="Path 24" d="M870.853,163l1.381.46,2.924-6.02a3.069,3.069,0,0,0-.661-3.579l-1.551-1.454a.808.808,0,0,1-.136-1.013l1.5-2.43,4.832,5.28.69-.448-2.654-4.832-.074-3.031a2.723,2.723,0,0,0-1.153-2.159h0a2.723,2.723,0,0,0-3.7.531l-4.295,5.4a1.969,1.969,0,0,0,.332,2.779l3.955,3.076a1.271,1.271,0,0,1,.437,1.368Z" transform="translate(-867.522 -143.276)" fill="#1e7ab8"/>
      </g>
      <g id="Group_68" data-name="Group 68" transform="translate(835.5 141.991)">
        <path id="Path_25" data-name="Path 25" d="M840.447,205.394a4.947,4.947,0,1,1,4.947-4.947A4.953,4.953,0,0,1,840.447,205.394Zm0-8.973a4.027,4.027,0,1,0,4.027,4.027A4.031,4.031,0,0,0,840.447,196.42Z" transform="translate(-835.5 -195.5)" fill="#1e7ab8"/>
      </g>
      <g id="Group_69" data-name="Group 69" transform="translate(851.491 142.106)">
        <path id="Path_26" data-name="Path 26" d="M909.947,205.894a4.947,4.947,0,1,1,4.947-4.947A4.953,4.953,0,0,1,909.947,205.894Zm0-8.973a4.027,4.027,0,1,0,4.026,4.027A4.031,4.031,0,0,0,909.947,196.92Z" transform="translate(-905 -196)" fill="#1e7ab8"/>
      </g>
    </g>
    <rect id="Rectangle_24" data-name="Rectangle 24" width="38" height="38" transform="translate(1849 642)" fill="none"/>
  </g>
</svg>
