<svg xmlns="http://www.w3.org/2000/svg" width="37" height="37" viewBox="0 0 37 37">
  <g id="exit_1" transform="translate(-15.521 -309.006)">
    <path id="Path_6" data-name="Path 6" d="M859.521-11.994v37l37-37Z" transform="translate(-844 321)" fill="#ffc440"/>
    <g id="Path_47" data-name="Path 47" transform="translate(26.916 337.619)" fill="#fff">
      <path d="M 11.0400390625 0.2499972581863403 L 10.7900390625 0.2499972581863403 L 7.136719703674316 0.2499972581863403 L 6.886719703674316 0.2499972581863403 L 6.886719703674316 -2.734374902502168e-06 L 6.886719703674316 -16.52361869812012 L 1.956889510154724 -13.03566265106201 L 1.562499523162842 -12.75661277770996 L 1.562499523162842 -13.23974227905273 L 1.562499523162842 -16.68066215515137 L 1.562499523162842 -16.81051254272461 L 1.668729543685913 -16.88519287109375 L 7.007109642028809 -20.63763236999512 L 7.071809768676758 -20.68310356140137 L 7.150879383087158 -20.68310356140137 L 10.7900390625 -20.68310356140137 L 11.0400390625 -20.68310356140137 L 11.0400390625 -20.43310356140137 L 11.0400390625 -2.734374902502168e-06 L 11.0400390625 0.2499972581863403 Z" stroke="none"/>
      <path d="M 10.7900390625 -2.734374902502168e-06 L 10.7900390625 -20.43310356140137 L 7.150879383087158 -20.43310356140137 L 1.812499523162842 -16.68066215515137 L 1.812499523162842 -13.23974227905273 L 6.895999431610107 -16.83642196655273 L 7.136719703674316 -16.83642196655273 L 7.136719703674316 -2.734374902502168e-06 L 10.7900390625 -2.734374902502168e-06 M 11.2900390625 0.4999972581863403 L 10.7900390625 0.4999972581863403 L 7.136719703674316 0.4999972581863403 L 6.636719703674316 0.4999972581863403 L 6.636719703674316 -2.734374902502168e-06 L 6.636719703674316 -16.04048156738281 L 2.101289510726929 -12.83157253265381 L 1.312499523162842 -12.27349281311035 L 1.312499523162842 -13.23974227905273 L 1.312499523162842 -16.68066215515137 L 1.312499523162842 -16.94037246704102 L 1.524969577789307 -17.08971214294434 L 6.863349437713623 -20.84215354919434 L 6.992729663848877 -20.93310356140137 L 7.150879383087158 -20.93310356140137 L 10.7900390625 -20.93310356140137 L 11.2900390625 -20.93310356140137 L 11.2900390625 -20.43310356140137 L 11.2900390625 -2.734374902502168e-06 L 11.2900390625 0.4999972581863403 Z" stroke="none" fill="#000"/>
    </g>
  </g>
</svg>
