<svg xmlns="http://www.w3.org/2000/svg" width="53.447" height="60" viewBox="0 0 53.447 60">
  <g id="Group_147" data-name="Group 147" transform="translate(-507.589 -1158.072)">
    <path id="Path_1" data-name="Path 1" d="M533.7,1192l-3.742,5.783a5.3,5.3,0,0,1-5.206,2.37l-1.661-.237a3.56,3.56,0,0,0-3.351,1.388l-2.635,3.513a3.1,3.1,0,0,0,2.479,4.958h14a2.1,2.1,0,0,1,1.747,3.275L521.016,1234.4a.84.84,0,0,1-1.538-.468v-7.774a8.1,8.1,0,0,1,1.586-4.814l2.731-3.695h-5.739a10.452,10.452,0,0,1-9.172-15.463l2.011-3.679a12.5,12.5,0,0,1,10.964-6.5Z" transform="translate(0 -16.698)" fill="#83ae25"/>
    <path id="Path_2" data-name="Path 2" d="M559.172,1200.805l3.285-5.269a5.223,5.223,0,0,1,4.432-2.46h3.94a3.178,3.178,0,0,0,2.721-1.536l1.833-3.04a3.438,3.438,0,0,0-2.734-5.5l-14.289-.066a1.608,1.608,0,0,1-1.326-2.506l14.842-22.051a.686.686,0,0,1,1.255.383v8.3a7.471,7.471,0,0,1-1.144,3.973l-2.912,4.637h5.882a10.263,10.263,0,0,1,8.962,15.264l-3.8,5.515a9.894,9.894,0,0,1-8.086,4.281Z" transform="translate(-24.199)" fill="#1e7ab8"/>
  </g>
</svg>
