<svg xmlns="http://www.w3.org/2000/svg" width="37" height="37" viewBox="0 0 37 37">
  <g id="line-HSR" transform="translate(-189.778 -487)">
    <g id="Rectangle_1" data-name="Rectangle 1" transform="translate(189.778 487)" fill="none" stroke="#868686" stroke-linejoin="round" stroke-width="2">
      <rect width="37" height="37" rx="7" stroke="none"/>
      <rect x="1" y="1" width="35" height="35" rx="6" fill="none"/>
    </g>
    <g id="SuzpAy.tif" transform="translate(-601.639 147.006)">
      <g id="Group_80" data-name="Group 80" transform="translate(795.417 346.994)">
        <path id="Path_29" data-name="Path 29" d="M819.4,348.424a22.584,22.584,0,0,1,2.849-.942,28.32,28.32,0,0,1,8.7-.279c.616.071.908.259.887.943-.046,1.473.014,2.95-.038,4.423-.01.291-.3.8-.5.821a9.962,9.962,0,0,0-3.672,1.378,25.761,25.761,0,0,1-4.2,1.308c-2.536.818-5.081,1.619-7.575,2.553a9.371,9.371,0,0,0-2.381,1.554c-1.33,1.054-2.673,2.045-4.469,2.041-1.1,0-1.7-.73-1.329-1.757a14.341,14.341,0,0,1,5.009-6.5,1.215,1.215,0,0,1,.764-.1c.612.052,1.222.144,1.831.228a8.521,8.521,0,0,0,6.464-2.076c.874-.66,1.788-1.27,2.623-1.977.681-.577.583-1.024-.3-1.142-1.248-.167-2.522-.143-3.785-.19-.262-.01-.525.028-.788.044Z" transform="translate(-802.967 -346.994)" fill="#868686"/>
        <path id="Path_30" data-name="Path 30" d="M825.39,371.358c-.282.292-.509.7-.853.86q-10.8,4.99-21.626,9.931c-2.075.951-4.148,1.907-6.235,2.866-.482-1.644-.375-1.855,1.057-2.464q13.4-5.693,26.806-11.389a2.613,2.613,0,0,1,.584-.1Z" transform="translate(-796.417 -361.143)" fill="#868686"/>
        <path id="Path_31" data-name="Path 31" d="M796.67,376.128c-.392-.914-.043-1.343.757-1.58.853-.253,1.7-.525,2.53-.853a12.2,12.2,0,0,0,1.452-.827c2.229.674,4.392-.287,6.556-1.094,4.582-1.709,9.143-3.473,13.714-5.21a1.916,1.916,0,0,0,1.365-1.242c.319-1,1.3-.926,2.1-1.139.408,1.566.279,1.837-1.01,2.34q-8.745,3.406-17.492,6.809a5.51,5.51,0,0,1-2.054.607c-2.585-.116-4.766,1.092-7.061,1.947C797.248,375.99,796.954,376.049,796.67,376.128Z" transform="translate(-796.471 -357.101)" fill="#868686"/>
      </g>
    </g>
  </g>
</svg>
