<svg xmlns="http://www.w3.org/2000/svg" width="32" height="32" viewBox="0 0 32 32">
  <g id="Group_124" data-name="Group 124" transform="translate(-325 -496)">
    <g id="Regular-M" transform="translate(534.6 -1511)">
      <path id="Path_50" data-name="Path 50" d="M-193.614,2007a16.106,16.106,0,0,0-15.986,16,16.131,16.131,0,0,0,16,16,16.117,16.117,0,0,0,16-16A16.12,16.12,0,0,0-193.614,2007Zm6.448,20.6a1.294,1.294,0,0,1,.376.925,1.312,1.312,0,0,1-1.3,1.317,1.33,1.33,0,0,1-.925-.392l-4.6-4.594-4.565,4.594a1.329,1.329,0,0,1-.957.392,1.308,1.308,0,0,1-1.285-1.317,1.326,1.326,0,0,1,.376-.909l4.6-4.6-4.6-4.594a1.328,1.328,0,0,1-.376-.912,1.283,1.283,0,0,1,1.285-1.285,1.183,1.183,0,0,1,.909.376l4.613,4.6,4.658-4.613a1.2,1.2,0,0,1,.9-.392,1.294,1.294,0,0,1,1.285,1.288,1.256,1.256,0,0,1-.376.925l-4.613,4.61Z" transform="translate(0)" fill="#76768012"/>
      <path id="Path_51" data-name="Path 51" d="M-167.582,2047.181a1.313,1.313,0,0,1,.381.939,1.331,1.331,0,0,1-1.32,1.336,1.349,1.349,0,0,1-.939-.4l-4.664-4.661-4.632,4.661a1.348,1.348,0,0,1-.971.4,1.327,1.327,0,0,1-1.3-1.336,1.346,1.346,0,0,1,.381-.923l4.664-4.664-4.664-4.661a1.347,1.347,0,0,1-.381-.926,1.3,1.3,0,0,1,1.3-1.3,1.2,1.2,0,0,1,.922.381l4.68,4.664,4.726-4.681a1.222,1.222,0,0,1,.909-.4,1.313,1.313,0,0,1,1.3,1.307,1.274,1.274,0,0,1-.381.939l-4.68,4.677Z" transform="translate(-19.491 -19.519)" fill="#868686"/>
    </g>
  </g>
</svg>
