<svg xmlns="http://www.w3.org/2000/svg" width="38" height="38" viewBox="0 0 38 38">
  <g id="aed" transform="translate(-2187 -642)">
    <g id="Group_65" data-name="Group 65" transform="translate(416.402 507.247)">
      <g id="Group_64" data-name="Group 64" transform="translate(1781.352 140.785)">
        <path id="Path_20" data-name="Path 20" d="M1797.844,144.281h-2.061l-.447,1.208h-1.288l2.036-4.7h1.494l2.044,4.7h-1.331Zm-.275-.731-.189-.515c-.2-.49-.369-1.03-.558-1.538h-.034c-.163.515-.352,1.049-.541,1.538l-.189.515Z" transform="translate(-1794.048 -140.785)" fill="#0a84ff"/>
        <path id="Path_21" data-name="Path 21" d="M1820.893,140.785h3.9v.782h-2.628v1.087h2.233v.788h-2.233V144.7h2.723v.788h-3.994Z" transform="translate(-1814.571 -140.785)" fill="#0a84ff"/>
        <path id="Path_22" data-name="Path 22" d="M1843.325,140.785h1.744c1.941,0,3.144.744,3.144,2.333s-1.2,2.371-3.075,2.371h-1.812Zm1.666,3.948c1.185,0,1.924-.471,1.924-1.615s-.739-1.583-1.924-1.583h-.4v3.2Z" transform="translate(-1831.72 -140.785)" fill="#0a84ff"/>
      </g>
      <path id="Path_23" data-name="Path 23" d="M1796.595,165.933a6.366,6.366,0,0,0-6.846,3.321.17.17,0,0,1-.3,0,6.358,6.358,0,0,0-12,3,6.788,6.788,0,0,0,2.617,5.071l9.54,8.54,9.541-8.54a6.788,6.788,0,0,0,2.617-5.071A6.362,6.362,0,0,0,1796.595,165.933Zm-9.4,15.475,1.441-5.127h-2.989l6.213-6.992-1.6,5.054h3.3Z" transform="translate(0 -19.141)" fill="#0a84ff"/>
    </g>
    <rect id="Rectangle_24" data-name="Rectangle 24" width="38" height="38" transform="translate(2187 642)" fill="none"/>
  </g>
</svg>
