<svg xmlns="http://www.w3.org/2000/svg" width="37" height="37" viewBox="0 0 37 37">
  <g id="exit_3" transform="translate(-15.521 -309.006)">
    <path id="Path_6" data-name="Path 6" d="M859.521-11.994v37l37-37Z" transform="translate(-844 321)" fill="#ffc440"/>
    <g id="Path_48" data-name="Path 48" transform="translate(24.68 337.619)">
      <path d="M 9.52978515625 0.9106472730636597 C 7.246224880218506 0.9106472730636597 5.266824722290039 0.3012072741985321 3.805574893951416 -0.8518027067184448 C 2.347994804382324 -2.001912832260132 1.501104831695557 -3.603742837905884 1.356454849243164 -5.484112739562988 L 1.342554807662964 -5.650862693786621 L 1.297424793243408 -6.1923828125 L 1.840824842453003 -6.1923828125 L 5.324214935302734 -6.1923828125 L 5.780824661254883 -6.1923828125 L 5.822165012359619 -5.737652778625488 L 5.835774898529053 -5.58794116973877 C 6.014098644256592 -4.062427043914795 7.463320255279541 -3.077152729034424 9.52978515625 -3.077152729034424 C 11.5852746963501 -3.077152729034424 12.96630477905273 -4.167962551116943 12.96630477905273 -5.791502952575684 L 12.96630477905273 -5.819822788238525 C 12.96630477905273 -6.881142616271973 12.48489475250244 -8.661623001098633 9.260745048522949 -8.661623001098633 L 6.853514671325684 -8.661623001098633 L 6.353514671325684 -8.661623001098633 L 6.353514671325684 -9.161623001098633 L 6.353514671325684 -11.88037300109863 L 6.353514671325684 -12.38037300109863 L 6.853514671325684 -12.38037300109863 L 9.189945220947266 -12.38037300109863 C 11.13532447814941 -12.38037300109863 12.44238471984863 -13.40859317779541 12.44238471984863 -14.93896293640137 L 12.44238471984863 -14.96728229522705 C 12.44238471984863 -15.89110279083252 12.06031513214111 -17.4409122467041 9.50146484375 -17.4409122467041 C 7.606935024261475 -17.4409122467041 6.332584857940674 -16.47386360168457 6.175704956054688 -14.91715240478516 L 6.161584854125977 -14.77593231201172 L 6.116554737091064 -14.32568264007568 L 5.664064884185791 -14.32568264007568 L 2.265624761581421 -14.32568264007568 L 1.718104839324951 -14.32568264007568 L 1.767674803733826 -14.87095260620117 L 1.781834840774536 -15.02671241760254 C 2.1194748878479 -18.86360359191895 5.149664878845215 -21.34375190734863 9.50146484375 -21.34375190734863 C 11.66752529144287 -21.34375190734863 13.51926517486572 -20.7890625 14.85647487640381 -19.73965263366699 C 16.20002555847168 -18.68527221679688 16.93994522094727 -17.16139221191406 16.93994522094727 -15.44873237609863 L 16.93994522094727 -15.42041301727295 C 16.93994522094727 -14.08442306518555 16.47059440612793 -12.8849630355835 15.58264446258545 -11.95168304443359 C 15.12793827056885 -11.4737663269043 14.5741548538208 -11.075119972229 13.94215679168701 -10.76675796508789 C 16.27494812011719 -10.00245475769043 17.66210556030273 -8.174848556518555 17.66210556030273 -5.720702648162842 L 17.66210556030273 -5.6923828125 C 17.66210556030273 -1.804612755775452 14.31797504425049 0.9106472730636597 9.52978515625 0.9106472730636597 Z" stroke="none"/>
      <path d="M 9.52978515625 0.4106472730636597 C 14.06103515625 0.4106472730636597 17.16210556030273 -2.095702648162842 17.16210556030273 -5.6923828125 L 17.16210556030273 -5.720702648162842 C 17.16210556030273 -8.552732467651367 15.16552448272705 -10.33691310882568 12.16357517242432 -10.62011241912842 L 12.16357517242432 -10.69092273712158 C 14.61328506469727 -11.20068264007568 16.43994522094727 -12.88574314117432 16.43994522094727 -15.42041301727295 L 16.43994522094727 -15.44873237609863 C 16.43994522094727 -18.64892196655273 13.70703506469727 -20.84375190734863 9.50146484375 -20.84375190734863 C 5.380854606628418 -20.84375190734863 2.591304779052734 -18.52148246765137 2.279784917831421 -14.98144245147705 L 2.265624761581421 -14.82568264007568 L 5.664064884185791 -14.82568264007568 L 5.678225040435791 -14.96728229522705 C 5.8623046875 -16.79394340515137 7.349124908447266 -17.9409122467041 9.50146484375 -17.9409122467041 C 11.68212509155273 -17.9409122467041 12.94238471984863 -16.83642196655273 12.94238471984863 -14.96728229522705 L 12.94238471984863 -14.93896293640137 C 12.94238471984863 -13.15478229522705 11.44140529632568 -11.88037300109863 9.189945220947266 -11.88037300109863 L 6.853514671325684 -11.88037300109863 L 6.853514671325684 -9.161623001098633 L 9.260745048522949 -9.161623001098633 C 11.88037490844727 -9.161623001098633 13.46630477905273 -7.972172737121582 13.46630477905273 -5.819822788238525 L 13.46630477905273 -5.791502952575684 C 13.46630477905273 -3.894042730331421 11.89453506469727 -2.577152729034424 9.52978515625 -2.577152729034424 C 7.136714935302734 -2.577152729034424 5.536624908447266 -3.809082746505737 5.338374614715576 -5.536622524261475 L 5.324214935302734 -5.6923828125 L 1.840824842453003 -5.6923828125 L 1.854984879493713 -5.522462844848633 C 2.124024868011475 -2.024902820587158 5.055174827575684 0.4106472730636597 9.52978515625 0.4106472730636597 M 9.52978515625 1.41064727306366 C 7.132714748382568 1.41064727306366 5.046215057373047 0.7640372514724731 3.49585485458374 -0.4592827260494232 C 1.926990628242493 -1.697199702262878 1.015015006065369 -3.419723749160767 0.8583089113235474 -5.440924167633057 L 0.8442748188972473 -5.60933256149292 L 0.754024863243103 -6.6923828125 L 1.840824842453003 -6.6923828125 L 5.324214935302734 -6.6923828125 L 6.237424850463867 -6.6923828125 L 6.320105075836182 -5.782922744750977 L 6.333080768585205 -5.640185832977295 C 6.483314037322998 -4.386499881744385 7.736603736877441 -3.577152729034424 9.52978515625 -3.577152729034424 C 11.31365489959717 -3.577152729034424 12.46630477905273 -4.446332931518555 12.46630477905273 -5.791502952575684 L 12.46630477905273 -5.819822788238525 C 12.46630477905273 -6.569502830505371 12.22535514831543 -7.122452735900879 11.72968482971191 -7.51027250289917 C 11.18504524230957 -7.936392784118652 10.3313045501709 -8.161623001098633 9.260745048522949 -8.161623001098633 L 6.853514671325684 -8.161623001098633 L 5.853514671325684 -8.161623001098633 L 5.853514671325684 -9.161623001098633 L 5.853514671325684 -11.88037300109863 L 5.853514671325684 -12.88037300109863 L 6.853514671325684 -12.88037300109863 L 9.189945220947266 -12.88037300109863 C 10.04010486602783 -12.88037300109863 10.78030490875244 -13.10470294952393 11.27417469024658 -13.51205253601074 C 11.71132469177246 -13.87261295318604 11.94238471984863 -14.36602306365967 11.94238471984863 -14.93896293640137 L 11.94238471984863 -14.96728229522705 C 11.94238471984863 -16.27688217163086 11.12114524841309 -16.9409122467041 9.50146484375 -16.9409122467041 C 7.861354827880859 -16.9409122467041 6.804054737091064 -16.16562271118164 6.673184871673584 -14.8670129776001 L 6.659104824066162 -14.72618293762207 L 6.569055080413818 -13.82568264007568 L 5.664064884185791 -13.82568264007568 L 2.265624761581421 -13.82568264007568 L 1.170594811439514 -13.82568264007568 L 1.269734859466553 -14.91622257232666 L 1.283894896507263 -15.07198238372803 C 1.461294889450073 -17.08802223205566 2.341564893722534 -18.79805183410645 3.829274892807007 -20.01431274414062 C 5.293214797973633 -21.21114349365234 7.254624843597412 -21.84375190734863 9.50146484375 -21.84375190734863 C 11.78055477142334 -21.84375190734863 13.7390251159668 -21.25218200683594 15.16515445709229 -20.13299179077148 C 16.6320743560791 -18.98179244995117 17.43994522094727 -17.31822204589844 17.43994522094727 -15.44873237609863 L 17.43994522094727 -15.42041301727295 C 17.43994522094727 -13.9536828994751 16.92296409606934 -12.63503265380859 15.94488525390625 -11.60703277587891 C 15.67851257324219 -11.32706546783447 15.38155078887939 -11.0723180770874 15.05750179290771 -10.84463787078857 C 15.59078407287598 -10.5754508972168 16.06805038452148 -10.24226760864258 16.47939491271973 -9.8492431640625 C 17.58023452758789 -8.797432899475098 18.16210556030273 -7.369802951812744 18.16210556030273 -5.720702648162842 L 18.16210556030273 -5.6923828125 C 18.16210556030273 -3.640382766723633 17.27736473083496 -1.800642728805542 15.67086505889893 -0.5120527148246765 C 14.10270500183105 0.7457872629165649 11.97915458679199 1.41064727306366 9.52978515625 1.41064727306366 Z" stroke="none" fill="#fff"/>
    </g>
  </g>
</svg>
