<svg xmlns="http://www.w3.org/2000/svg" width="37" height="37" viewBox="0 0 37 37">
  <g id="line-tra" transform="translate(-189.778 -487)">
    <g id="Rectangle_1" data-name="Rectangle 1" transform="translate(189.778 487)" fill="none" stroke="#868686" stroke-linejoin="round" stroke-width="2">
      <rect width="37" height="37" rx="7" stroke="none"/>
      <rect x="1" y="1" width="35" height="35" rx="6" fill="none"/>
    </g>
    <path id="Path_28" data-name="Path 28" d="M658.458,369.2h12.191v-1.769H658.566a13.425,13.425,0,0,1,3.362-7.248,13.2,13.2,0,0,1,8.732-4.4c0,.134,0,.23,0,.325,0,.661,0,1.322.006,1.982,0,.152-.043.21-.2.234a10.861,10.861,0,0,0-8.674,6.6c-.031.067-.058.137-.083.207a.346.346,0,0,0,0,.091h8.957a2.833,2.833,0,0,0-.82-1.851,3.786,3.786,0,0,0-1.783-.994c0-.767,0-1.526.008-2.285,0-.057.1-.145.17-.163.679-.167,1.355-.368,2.045-.471a10.528,10.528,0,0,1,4.345.22,3.952,3.952,0,0,1,.672.246.343.343,0,0,1,.164.252c.012.668,0,1.338.008,2.006,0,.168-.067.215-.216.263a3.154,3.154,0,0,0-2.375,2.524c-.014.078-.014.159-.023.257H682a11.114,11.114,0,0,0-9.116-6.971V355.8a13.4,13.4,0,0,1,12.156,11.618H672.87v1.771h12.355a13.643,13.643,0,0,1-5.3,10.986,13.2,13.2,0,0,1-14.5,1.124A13.553,13.553,0,0,1,658.458,369.2Zm5.66,6.345c.3-.039.566-.067.834-.113a19.644,19.644,0,0,0,5.547-1.988.28.28,0,0,0,.17-.291c0-.529,0-1.057,0-1.586a1.387,1.387,0,0,0-.024-.188H661.1a10.859,10.859,0,0,0,21.421,0h-9.665c0,.629,0,1.239.006,1.849a.288.288,0,0,0,.146.192,19.53,19.53,0,0,0,4.118,1.678c.738.2,1.494.329,2.258.493v1.21H664.118Z" transform="translate(-463.56 136.134)" fill="#868686"/>
  </g>
</svg>
