<svg xmlns="http://www.w3.org/2000/svg" width="37" height="37" viewBox="0 0 37 37">
  <g id="_103" data-name="103" transform="translate(-189.778 -487)">
    <g id="Rectangle_1" data-name="Rectangle 1" transform="translate(189.778 487)" fill="none" stroke="#8ec31c" stroke-linejoin="round" stroke-width="2">
      <rect width="37" height="37" rx="7" stroke="none"/>
      <rect x="1" y="1" width="35" height="35" rx="6" fill="none"/>
    </g>
    <path id="Path_55" data-name="Path 55" d="M-2.8-1.458-2.511,0h1.8V-6.948h-5.4v2.106h2.844a3.09,3.09,0,0,1-.891,2.061,3.068,3.068,0,0,1-2.169.711,3.3,3.3,0,0,1-1.62-.369,3.091,3.091,0,0,1-1.08-.981A4.256,4.256,0,0,1-9.63-4.8a6.542,6.542,0,0,1-.189-1.575A7.033,7.033,0,0,1-9.63-8.01a4.338,4.338,0,0,1,.6-1.413,3.059,3.059,0,0,1,1.08-.99,3.3,3.3,0,0,1,1.62-.369,2.827,2.827,0,0,1,1.746.54,2.7,2.7,0,0,1,.972,1.62h2.7A4.8,4.8,0,0,0-1.5-10.566a4.781,4.781,0,0,0-1.233-1.422,5.432,5.432,0,0,0-1.674-.873,6.245,6.245,0,0,0-1.917-.3,6.492,6.492,0,0,0-2.655.522,5.679,5.679,0,0,0-1.989,1.44,6.421,6.421,0,0,0-1.242,2.151,8.03,8.03,0,0,0-.432,2.673,7.762,7.762,0,0,0,.432,2.619,6.255,6.255,0,0,0,1.242,2.115A5.689,5.689,0,0,0-8.982-.225,6.59,6.59,0,0,0-6.327.288,4.735,4.735,0,0,0-4.473-.1,4.235,4.235,0,0,0-2.8-1.458Zm7.2-5.58v-3.618H7.5a2.169,2.169,0,0,1,1.458.423,1.713,1.713,0,0,1,.486,1.359,1.793,1.793,0,0,1-.486,1.4A2.138,2.138,0,0,1,7.5-7.038ZM1.575-12.852V0H4.4V-5.022H7.227a2.1,2.1,0,0,1,1.53.468,2.553,2.553,0,0,1,.612,1.476q.108.774.162,1.62A4.983,4.983,0,0,0,9.819,0h2.826a1.891,1.891,0,0,1-.3-.657,5.675,5.675,0,0,1-.144-.819q-.045-.432-.063-.846t-.036-.72a7.724,7.724,0,0,0-.135-.972,3.268,3.268,0,0,0-.315-.891,2.445,2.445,0,0,0-.558-.7,2.18,2.18,0,0,0-.864-.441v-.036a3,3,0,0,0,1.557-1.26,3.864,3.864,0,0,0,.477-1.962,3.606,3.606,0,0,0-.261-1.377,3.321,3.321,0,0,0-.756-1.125,3.584,3.584,0,0,0-1.188-.765,4.137,4.137,0,0,0-1.557-.279Z" transform="translate(208.278 512.5)" fill="#8ec31c"/>
  </g>
</svg>
