<svg xmlns="http://www.w3.org/2000/svg" width="38" height="38" viewBox="0 0 38 38">
  <g id="nursing" transform="translate(-1959 -642)">
    <g id="Group_56" data-name="Group 56" transform="translate(819.826 525)">
      <path id="Path_10" data-name="Path 10" d="M1169.441,174.936c-1.56-2.558-3.339-8.664-7.338-8.724-2.785-.042-3.668-.037-3.913-.021.129.009-.016.021-.016.021s-.162-.014.007-.021c-.208-.014-1.054-.023-3.936.021-4,.06-5.778,6.166-7.338,8.724a.95.95,0,0,0,.386,1.225l9.147,6.039,1.733-1.733-5.084-4.622a7.355,7.355,0,0,0,4.391-.693l-2.542-3.111,1.849-1.028,6.235,5.242-4.849,4.213,1.733,1.733,9.147-6.039A.95.95,0,0,0,1169.441,174.936Zm-5.489.446a2.773,2.773,0,1,1,2.773-2.773A2.773,2.773,0,0,1,1163.952,175.382Z" transform="translate(0 -33.2)" fill="#0a84ff"/>
      <circle id="Ellipse_26" data-name="Ellipse 26" cx="4.16" cy="4.16" r="4.16" transform="translate(1154.014 123)" fill="#0a84ff"/>
    </g>
    <rect id="Rectangle_24" data-name="Rectangle 24" width="38" height="38" transform="translate(1959 642)" fill="none"/>
  </g>
</svg>
