<svg xmlns="http://www.w3.org/2000/svg" width="140" height="36" viewBox="0 0 140 36">
  <g id="ptx-logo" transform="translate(-2515 -1640)">
    <path id="Path_63" data-name="Path 63" d="M17.411,79.457q0-3.538,0-7.075a2.027,2.027,0,0,1,1.66-1.945,2.458,2.458,0,0,1,.531-.054H31.3A2.128,2.128,0,0,1,33.427,71.9a1.842,1.842,0,0,1,.062.482q0,5.469,0,10.938a2.062,2.062,0,0,1-2.156,1.994q-4.336,0-8.671,0c-.111,0-.137-.025-.137-.127q.006-1.881,0-3.761c0-.086.022-.1.112-.1q3.214,0,6.427,0c.1,0,.133-.018.132-.119q-.005-3.36,0-6.719c0-.092-.024-.117-.125-.117q-3.613,0-7.226,0c-.155,0-.137-.02-.137.132q0,6.018,0,12.036a2.026,2.026,0,0,1-1.736,1.967,2.039,2.039,0,0,1-2.559-1.983Zm13.674-.225c0,.285,0,.569,0,.854,0,.06.015.086.085.083.117,0,.234,0,.35,0,.057,0,.076-.018.075-.071q0-.859,0-1.717c0-.057-.026-.067-.079-.066-.113,0-.226,0-.339,0-.073,0-.094.019-.093.085C31.087,78.677,31.085,78.955,31.085,79.232Zm.508-3.3c0-.284,0-.569,0-.853,0-.058-.011-.086-.083-.083-.116,0-.233,0-.35,0-.055,0-.077.014-.077.068q0,.858,0,1.716c0,.056.024.068.078.067.106,0,.212-.007.317,0,.088.006.119-.016.117-.1C31.589,76.476,31.593,76.2,31.593,75.934Zm-.253,5.7c-.058,0-.117,0-.175,0s-.087.02-.081.076c0,.034,0,.068,0,.1a1.167,1.167,0,0,1-.667,1.116c-.048.026-.058.048-.031.095a2.475,2.475,0,0,1,.143.273c.034.078.072.081.144.041a1.64,1.64,0,0,0,.918-1.461C31.6,81.636,31.593,81.636,31.341,81.636Zm-1.347-9.481c-.046-.012-.056.014-.059.055-.008.1-.017.21-.033.313-.01.065,0,.092.081.106a1.254,1.254,0,0,1,1.061.883c.018.056.041.066.1.051a2.192,2.192,0,0,1,.32-.062c.095-.009.09-.048.07-.113a1.644,1.644,0,0,0-.369-.65A1.848,1.848,0,0,0,29.994,72.155Zm-6.244.462c.306,0,.613,0,.919,0,.071,0,.1-.017.093-.085-.005-.1,0-.21,0-.315,0-.052-.018-.071-.075-.071q-.924,0-1.848,0c-.056,0-.079.016-.077.069,0,.1,0,.21,0,.315,0,.066.019.087.092.086C23.152,72.614,23.451,72.616,23.75,72.616ZM19.817,82.39c0-.284,0-.568,0-.852,0-.065-.017-.091-.091-.087-.109,0-.219,0-.328,0-.066,0-.088.018-.088.08q0,.847,0,1.7c0,.061.017.084.085.082.109,0,.219,0,.328,0,.07,0,.094-.017.093-.085C19.815,82.945,19.817,82.667,19.817,82.39Zm1.358-10h.006c0-.054,0-.109,0-.163s-.014-.078-.079-.077a1.909,1.909,0,0,0-.326.027A1.777,1.777,0,0,0,19.434,73.2c-.028.06-.01.083.052.1a3.024,3.024,0,0,1,.309.1c.073.029.095.008.125-.054a1.287,1.287,0,0,1,1.032-.727c.074-.011.177.029.216-.026S21.175,72.457,21.175,72.386Zm6.158.23c.3,0,.605,0,.908,0,.067,0,.1-.011.1-.082-.007-.1,0-.21,0-.315,0-.051-.014-.073-.073-.073q-.925,0-1.849,0c-.062,0-.073.023-.072.072a2.97,2.97,0,0,1,0,.3c-.006.08.028.095.106.094C26.742,72.614,27.037,72.616,27.333,72.616Zm-7.516,3.122c0-.281,0-.562,0-.843,0-.058-.011-.087-.083-.084-.113,0-.226,0-.339,0-.07,0-.088.023-.084.082,0,.081,0,.162,0,.244,0,.474,0,.948,0,1.422,0,.086.028.111.117.1a2.17,2.17,0,0,1,.3,0c.081.005.1-.025.1-.093C19.815,76.293,19.817,76.015,19.817,75.738Zm0,3.324c0-.281,0-.562,0-.842,0-.064-.014-.092-.09-.088-.112.005-.226,0-.338,0-.055,0-.078.012-.078.067q0,.858,0,1.715c0,.057.025.067.078.066.113,0,.226,0,.339,0,.075,0,.09-.024.089-.087C19.815,79.616,19.817,79.339,19.817,79.062Zm4.52,4.493c.3,0,.605,0,.908,0,.073,0,.1-.02.092-.086-.005-.1,0-.21,0-.315,0-.045-.01-.068-.065-.068q-.93,0-1.859,0c-.052,0-.071.017-.069.065,0,.1,0,.21,0,.315,0,.073.025.091.1.09C23.739,83.553,24.038,83.555,24.337,83.555Zm3.574-.468c-.3,0-.6,0-.9,0-.084,0-.106.023-.1.1a2.959,2.959,0,0,1,0,.3c0,.053.016.069.074.069q.923,0,1.847,0c.058,0,.075-.019.073-.07,0-.1,0-.21,0-.314,0-.067-.02-.086-.091-.085C28.515,83.089,28.213,83.087,27.911,83.087Zm-8.6,2.605c0,.285,0,.569,0,.853,0,.062.02.083.087.08.116,0,.233,0,.35,0,.052,0,.069-.018.069-.065q0-.858,0-1.717c0-.053-.019-.071-.076-.069-.113,0-.226,0-.339,0-.073,0-.092.021-.092.086C19.315,85.137,19.313,85.415,19.313,85.692Z" transform="translate(2504.369 1581.456)" fill="#2680a4"/>
    <path id="Path_64" data-name="Path 64" d="M72.2,66.874q0-2.221,0-4.442c0-.1-.023-.126-.131-.123-.3.007-.606,0-.909,0a2.088,2.088,0,0,1-2.079-1.7,2.013,2.013,0,0,1,1.778-2.262,2.286,2.286,0,0,1,.381-.027c.277,0,.555,0,.832,0,.1,0,.128-.016.127-.113,0-1.02,0-2.04,0-3.06,0-.237,0-.474,0-.712A2.073,2.073,0,0,1,74.118,52.5a2.13,2.13,0,0,1,2.368,1.738,1.452,1.452,0,0,1,.009.2q0,1.886,0,3.772c0,.089.022.111.119.111q3.175,0,6.35,0a2.132,2.132,0,0,1,2.1,1.46,2.013,2.013,0,0,1-1.824,2.52,2.248,2.248,0,0,1-.23.007q-3.192,0-6.383,0c-.105,0-.132.023-.132.122q0,3.36,0,6.719c0,.1.032.114.128.114q3.164,0,6.328,0a2.1,2.1,0,0,1,2.161,1.664,2.009,2.009,0,0,1-1.772,2.3,2.192,2.192,0,0,1-.327.023H74.35A2.069,2.069,0,0,1,72.2,71.256Q72.2,69.065,72.2,66.874Z" transform="translate(2469.552 1593.515)" fill="#2680a4"/>
    <path id="Path_65" data-name="Path 65" d="M120.84,83.487a1.893,1.893,0,0,1,.6-1.43q1.423-1.412,2.84-2.83.667-.665,1.334-1.33c.048-.047.046-.075,0-.122q-1.258-1.25-2.513-2.5l-1.72-1.718a1.858,1.858,0,0,1,1.039-3.132,2.091,2.091,0,0,1,1.982.571q1.3,1.274,2.594,2.557c.484.478.97.955,1.449,1.438.077.078.106.022.147-.019l2.031-2.005c.682-.673,1.352-1.356,2.048-2.016a2.058,2.058,0,0,1,2.081-.487,1.855,1.855,0,0,1,1.384,1.439,1.762,1.762,0,0,1-.562,1.722q-1.722,1.71-3.436,3.426c-.233.233-.46.472-.7.7-.082.077-.066.116,0,.183q.548.539,1.09,1.083,1.545,1.543,3.09,3.086a1.847,1.847,0,0,1-.968,3.138,2.094,2.094,0,0,1-2.057-.58L130.106,82.2c-.5-.5-1.006-.99-1.5-1.49-.081-.082-.116-.067-.188,0q-1.368,1.356-2.741,2.707c-.442.436-.875.881-1.328,1.308a2.116,2.116,0,0,1-3.363-.639A1.638,1.638,0,0,1,120.84,83.487Z" transform="translate(2434.656 1581.468)" fill="#2680a4"/>
    <path id="Path_66" data-name="Path 66" d="M140.938,55.386a2.219,2.219,0,0,1-.33,1.174,8.8,8.8,0,0,1-1.193,1.642,20.045,20.045,0,0,1-1.6,1.6c-.053.048-.09.073-.159.011a19.974,19.974,0,0,1-1.7-1.713,8.32,8.32,0,0,1-1.175-1.677,2.192,2.192,0,0,1-.21-1.509,3,3,0,0,1,2.144-2.284,3.2,3.2,0,0,1,1.786-.061,3.076,3.076,0,0,1,2.284,1.97A2.112,2.112,0,0,1,140.938,55.386Zm-4.953.077a1.753,1.753,0,1,0,1.743-1.623A1.686,1.686,0,0,0,135.985,55.463Z" transform="translate(2425.433 1593.526)" fill="#e5981d"/>
    <path id="Path_67" data-name="Path 67" d="M36.039,90.393c-.938,0-1.875,0-2.813,0-.1,0-.119-.028-.119-.114q0-2.592,0-5.183c0-.164-.015-.139.153-.139q2.786,0,5.572,0c.095,0,.132.016.132.114q-.005,2.576,0,5.153c0,.169,0,.169-.187.169Zm-.016-2.72h1.685a.4.4,0,0,0,.436-.377q.009-.6,0-1.2a.39.39,0,0,0-.387-.381c-.076-.007-.153,0-.229,0q-1.559,0-3.119,0c-.337,0-.486.141-.487.451q0,.549,0,1.1a.394.394,0,0,0,.449.412Zm1.57,1.847a.531.531,0,0,0,.553-.5.544.544,0,0,0-.551-.511.528.528,0,0,0-.54.5A.515.515,0,0,0,37.593,89.521ZM35,89.02a.522.522,0,0,0-.528-.512.534.534,0,0,0-.556.5.52.52,0,0,0,.539.511A.511.511,0,0,0,35,89.02Z" transform="translate(2493.789 1571.632)" fill="#e5981d"/>
    <path id="Path_68" data-name="Path 68" d="M-37.055-7.911A8.87,8.87,0,0,1-39.5-3.949l.689.6A10.327,10.327,0,0,0-36.237-7.58Zm3.42,4.661-.791.257c.322.5.634,1.057.947,1.664-1.223.184-2.482.322-3.787.4A23.979,23.979,0,0,0-35.023-4.8l-.864-.294q-1.751,3.9-2.73,4.219l.156.846q2.937-.193,5.341-.552c.129.267.248.552.377.864l.818-.368A19.364,19.364,0,0,0-33.635-3.25Zm-1.848-4.688v.818h1.471a7.4,7.4,0,0,0,2.188,3.732L-31.135-4A6.76,6.76,0,0,1-33.35-7.938Zm5.644,1.526v.846h1.6v1.995H-30.3v.855h8.255v-.855H-24.1V-5.567h1.609v-.846H-24.1V-8.2h-.873v1.783h-2.39v-1.82h-.873v1.82Zm2.473,2.841V-5.567h2.39v1.995Zm-.193,1.02A10.887,10.887,0,0,1-30.317-.5l.607.791A11.325,11.325,0,0,0-26.9-1.954Zm2.859.018-.634.616a16.5,16.5,0,0,1,2.62,2.2l.7-.7A21.042,21.042,0,0,0-24.7-2.533ZM-13.025-7.9H-18.55V-6.33h.533V-6h1.829v.4h-1.93v2.822h1.93v.432H-18.55v.708h2.363v.8h.837v-.8h2.363V-2.34h-2.363v-.432h1.921V-5.594h-1.921V-6h1.829v-.368h.5ZM-17.713-6.67v-.524h1.526v.524Zm2.363-.524h1.489v.524h-1.489Zm1.085,3.76h-1.085v-.441h1.085Zm-1.921,0h-1.094v-.441h1.094Zm-1.094-1.048v-.45h1.094v.45Zm1.93-.45h1.085v.45h-1.085Zm-4.973-3.227-.57.542a9.121,9.121,0,0,1,1.406,1.333l.561-.561A10.818,10.818,0,0,0-20.324-8.159Zm-.763,2.2v.791h1.25a12.015,12.015,0,0,1-1.085,1.388v.662H-19.6a8.693,8.693,0,0,1-.423,1.406,2.834,2.834,0,0,0-1.2,1.406l.634.579c.4-.791.68-1.186.864-1.186a.294.294,0,0,1,.211.092,3.046,3.046,0,0,0,1.048.671,4.478,4.478,0,0,0,1.425.211c.6.018,1.223.037,1.866.037h2.252l.193-.827c-1.048.046-1.894.074-2.556.074-.643,0-1.223-.009-1.719-.018a3.958,3.958,0,0,1-1.167-.175,3.336,3.336,0,0,1-.846-.57l-.221-.165a8.783,8.783,0,0,0,.46-1.691v-.579h-1.1a12.685,12.685,0,0,0,1.011-1.425v-.68Zm9.3-.147v3.8h1.094v.579h-1.3V-1h1.3V.225h.754V-1h1.269v-.735H-9.936v-.579h1.094V-5.8l.414.625c.313-.239.616-.506.91-.781v.487h2.592v-.5c.3.276.625.542.956.791l.46-.68A11.862,11.862,0,0,1-5.892-8.159h-.643a12.036,12.036,0,0,1-2.307,2.28v-.23H-9.936V-6.66H-8.7V-7.4H-9.936V-8.15h-.754V-7.4h-1.241v.735h1.241v.552ZM-9.569-3.02h-.441v-.855h.441Zm-1.066,0h-.432v-.855h.432Zm-.432-1.5V-5.4h.432v.882ZM-10.01-5.4h.441v.882h-.441Zm4.854-.781H-7.289c.368-.368.726-.772,1.076-1.2A11.97,11.97,0,0,0-5.156-6.182ZM-5.846-4.62v3.374h.7V-4.62Zm1.1,4.845c.487,0,.735-.3.735-.9V-4.951h-.726V-.86c0,.285-.083.432-.248.432a5.579,5.579,0,0,1-.653-.046l.156.7Zm-2.932-3.07h.708v.662h-.708Zm.708-.643h-.708v-.653h.708Zm-.717,1.958h.717v.8c0,.221-.074.34-.211.34A3.59,3.59,0,0,1-7.6-.428l.184.68h.469a.635.635,0,0,0,.7-.726V-4.85H-8.4v3.024A3.1,3.1,0,0,1-8.824-.18l.579.524A3.926,3.926,0,0,0-7.684-1.531Zm5.267-5.231v1.71h1.37a6.9,6.9,0,0,1-1.82.882l.368.689A8.306,8.306,0,0,0-.974-4.473v.9H-.2v-.864c.313.193.7.45,1.14.781l.441-.653C.847-4.565.313-4.794-.2-4.987v-.064H1.242v-1.71H-.2v-.4H1.444v-.662H-.2V-8.2H-.974v.386H-2.72v.662H-.974v.4ZM.552-5.631H-.2v-.542H.552Zm-1.526,0h-.754v-.542h.754Zm3.668-1.14H4.138a3.022,3.022,0,0,1-.671,1.489l-.009.009a3.012,3.012,0,0,1-.7-.9l-.625.359A6.073,6.073,0,0,0,2.694-6.771ZM2.86-4.813A5.751,5.751,0,0,1,1.5-4.28l.294.708a6.976,6.976,0,0,0,1.691-.717,5.533,5.533,0,0,0,1.609.745l.45-.689a5.275,5.275,0,0,1-1.462-.579A4.23,4.23,0,0,0,4.9-6.771h.487v-.735h-2.4c.055-.2.11-.4.165-.616l-.781-.1A4.823,4.823,0,0,1,1.251-6l.506.643c.12-.138.239-.285.368-.441A4.229,4.229,0,0,0,2.86-4.813Zm-5.1,1.471v.763H.911V-.667H-.5V-2.248H-1.3V-.667H-2.7V.115H5.516V-.667H1.775v-.588H4.514v-.735H1.775v-.588h3.3v-.763Zm12.52-4.881a13.28,13.28,0,0,1-4.017,3.1l.46.846A14.568,14.568,0,0,0,8.182-5.2v.671h4.835V-5.18a14.382,14.382,0,0,0,1.425.882l.469-.837a13.176,13.176,0,0,1-3.99-3.089ZM8.412-5.364A12.062,12.062,0,0,0,10.6-7.433a12.509,12.509,0,0,0,2.169,2.068ZM13.6-3.544H7.6V.271h.846v-.5h4.3v.5H13.6ZM8.449-1.053V-2.726h4.3v1.673ZM19.875-7.019h2.739a3.733,3.733,0,0,1-.478.625l.6.469a5.157,5.157,0,0,0,.791-1.2v-.607H20.3c.064-.138.12-.285.175-.432l-.8-.092a3.381,3.381,0,0,1-1.324,1.618l.478.634A4.774,4.774,0,0,0,19.875-7.019Zm-3.953-.708v.735H18.2v-.735Zm-.184,1.655v.745H18.4v-.745Zm5.074-.864c-.23.846-.956,1.379-2.188,1.6l.349.533H16.759v3.8h1.691a12.4,12.4,0,0,1-2.721.671l.4.671A9.986,9.986,0,0,0,19.048-.52l-.377-.487h2.114L20.5-.455a18.339,18.339,0,0,1,3.07.8l.285-.689a19.989,19.989,0,0,0-2.841-.662h1.82V-4.776a4.192,4.192,0,0,0,.708.165l.359-.717a4.285,4.285,0,0,1-2.473-1.094c.046-.12.083-.239.12-.368ZM19.416-4.8a3.146,3.146,0,0,0,1.673-1.03A4.406,4.406,0,0,0,22.753-4.8Zm2.565,3.1H17.614v-.45h4.367Zm-4.367-1.02v-.4h4.367v.4Zm0-.984v-.432h4.367v.432ZM28.149-4.5v.837h1.02v3.9h.846v-3.9h1.02V-4.5h-1.02V-7.01h1.213v2.133a10.479,10.479,0,0,0,.607,4.422A1,1,0,0,0,32.69.17.413.413,0,0,0,33.039-.1a5.093,5.093,0,0,0,.248-1.7l-.68-.331c0,.359-.009.662-.028.919a1.1,1.1,0,0,1-.083.377c-.055,0-.119-.147-.184-.432a18.516,18.516,0,0,1-.23-3.613V-7.846H28.176v.837h.993V-4.5ZM24.812-7.1v.809h3.181V-7.1H26.871a7.156,7.156,0,0,0-.359-1.131L25.676-8a8.814,8.814,0,0,1,.377.9Zm.322,1.37v.763h2.519v-.763Zm0,1.278v.772h2.519v-.772Zm2.6,1.37H25.051V.206h.8V-.262h1.085v.4h.8ZM25.851-1.053V-2.294h1.085v1.241ZM-32.336,2.368c-.167.394-.335.777-.514,1.147H-35.3V4.543h1.876a7.788,7.788,0,0,1-1.769,1.984l.323.956c1.9-.084,3.752-.227,5.557-.442.215.311.406.609.574.908l.944-.657a22.141,22.141,0,0,0-1.936-2.605l-.92.562c.239.3.478.6.717.908-1.219.143-2.462.251-3.74.323a11.167,11.167,0,0,0,1.494-1.936h4.29V3.515h-3.729c.12-.263.251-.526.382-.813Zm-5.043.143-.813.777a10.626,10.626,0,0,1,1.864,1.566l.8-.813A12.5,12.5,0,0,0-37.379,2.511Zm-.287,2.856-.8.777a12.055,12.055,0,0,1,1.888,1.769l.8-.813A12.9,12.9,0,0,0-37.666,5.367Zm.98,3.227A37.908,37.908,0,0,1-38.264,12.8l1.052.466a42.838,42.838,0,0,0,1.518-4.29Zm4.219-.633v5.246h1.135V7.96Zm-2.079,0a10.771,10.771,0,0,1-.382,2.952,3.724,3.724,0,0,1-1.159,1.613l.717.9a4.988,4.988,0,0,0,1.446-2,12.16,12.16,0,0,0,.478-3.466Zm5.4,5.27h1.577v-1.04h-1.243c-.191,0-.275-.131-.275-.382V7.96h-1.087v3.991C-30.173,12.8-29.839,13.231-29.145,13.231Zm8.425-9.525-.645.621c.5.287.944.562,1.338.825H-22.74v6.465h1.064V9.634h1.661v1.972h1.052V9.634h1.709v.609c0,.263-.108.406-.311.406l-.944-.048.251.944h1a.947.947,0,0,0,1.064-1.076V5.152h-2.414a.21.21,0,0,0-.06-.048A12.832,12.832,0,0,0-16.43,3.563v-.8h-6.537v.944Zm1.374.86a14.823,14.823,0,0,0-1.279-.86h2.677A11.487,11.487,0,0,1-19.346,4.567Zm-2.33,3.31h1.661v.837h-1.661Zm2.713,0h1.709v.837h-1.709Zm1.709-.932h-1.709v-.86h1.709Zm-2.761,0h-1.661v-.86h1.661Zm-5.378-4.481-.765.729a11.854,11.854,0,0,1,1.828,1.721l.741-.741A14.736,14.736,0,0,0-25.393,2.463Zm-1.064,2.856V6.347h1.625a15.807,15.807,0,0,1-1.422,1.8v.86h1.733a10.216,10.216,0,0,1-.538,1.828,3.751,3.751,0,0,0-1.577,1.828l.825.753q.789-1.542,1.147-1.542a.382.382,0,0,1,.275.12,3.959,3.959,0,0,0,1.362.872,5.763,5.763,0,0,0,1.852.275c.765.024,1.577.048,2.426.048h2.9l.251-1.076c-1.35.06-2.45.1-3.3.1s-1.577-.012-2.223-.024a5.26,5.26,0,0,1-1.542-.227,4.51,4.51,0,0,1-1.087-.741l-.287-.215a13.7,13.7,0,0,0,.574-2.2V8.056H-24.9A16.631,16.631,0,0,0-23.576,6.2V5.319Zm13.612,1.327h1.673V8.391h-1.673Zm1.673-1.016h-1.673V3.861h1.673Zm-1.7,3.788h1.7v2.4c0,.418-.131.633-.382.633a8.665,8.665,0,0,1-.92-.06l.275,1h.956c.729,0,1.1-.406,1.1-1.219V2.834h-3.717V8.7a9.742,9.742,0,0,1-.729,3.98l.86.777A11.071,11.071,0,0,0-12.869,9.418Zm4.6-1.183h.155a7.671,7.671,0,0,0,1.434,3A5.721,5.721,0,0,1-8.268,12.5Zm0,4.3.586.884a6.306,6.306,0,0,0,1.745-1.362,9.538,9.538,0,0,0,1.781,1.35l.562-.956A9.467,9.467,0,0,1-5.3,11.187a8.8,8.8,0,0,0,1.076-3V7.231H-8.268V3.861H-5.4a6.713,6.713,0,0,1-.143,1.506.5.5,0,0,1-.287.311,2.1,2.1,0,0,1-.562.06c-.335,0-.6-.012-.789-.012l.3.956h1q1.147,0,1.362-.753a14.041,14.041,0,0,0,.215-3.1H-9.332V13.446h1.064Zm1.123-4.3h1.912a7.963,7.963,0,0,1-.825,2.115A6.584,6.584,0,0,1-7.145,8.235Zm5.844-4-.681.669A14.526,14.526,0,0,1-.13,6.467H-2.556V7.53h1.4a10.98,10.98,0,0,1-1.649,3.155l.418,1.064A14.488,14.488,0,0,0-.608,7.937v4.1c0,.275-.12.418-.347.418a6.847,6.847,0,0,1-.968-.072l.215.992h1.1c.681,0,1.028-.37,1.028-1.1V7.53h.86A14.469,14.469,0,0,1,.575,9l.681.609A11.554,11.554,0,0,0,2.272,7.423V6.467H.6l.323-.311C.779,6,.611,5.845.444,5.69a10.3,10.3,0,0,0,1.637-2V2.81H-2.364V3.861H.791a8.455,8.455,0,0,1-1.052,1.2Q-.727,4.662-1.3,4.232ZM3.659,2.415A5.289,5.289,0,0,1,1.938,5.045l.633.837A7.1,7.1,0,0,0,3.933,4.363H6.1a4.091,4.091,0,0,1-.92,1.362,4.873,4.873,0,0,1-.968-.86l-.8.454a5.748,5.748,0,0,0,.956,1A11.639,11.639,0,0,1,2.5,7.148l.633.825A10.982,10.982,0,0,0,5.224,6.921,11.189,11.189,0,0,0,7.459,7.948l.729-.872a12.358,12.358,0,0,1-2.127-.825A5.448,5.448,0,0,0,7.172,4.363h.8V3.336h-3.5c.1-.251.191-.514.275-.789ZM7.734,8.522H5.284l.072-.968H4.292c-.024.335-.048.657-.084.968H2.272v1.04H4.029a4.19,4.19,0,0,1-.466,1.219,5.414,5.414,0,0,1-2.211,1.757l.693.884a6.045,6.045,0,0,0,2.5-2.163,5.6,5.6,0,0,0,.586-1.7H6.694a14.409,14.409,0,0,1-.12,2.1.839.839,0,0,1-.932.705c-.335,0-.717-.024-1.159-.048l.239.944c.5.024.86.048,1.076.048,1.064,0,1.649-.406,1.769-1.2A22.244,22.244,0,0,0,7.734,8.522ZM9.885,2.858V3.969h4.23V8.2H9.407V9.287h4.708v4.135h1.147V9.287h4.8V8.2h-4.8V3.969h4.35V2.858Zm1.673,1.673-1.064.514a21.838,21.838,0,0,1,1.255,2.689l1.064-.526C12.406,6.228,11.988,5.343,11.558,4.531Zm6.453-.048a15.886,15.886,0,0,1-1.338,2.665l1.028.526a15.4,15.4,0,0,0,1.35-2.7ZM30.774,8.367H22.6v5.079h1.147v-.49h5.88v.49h1.147Zm-7.027,3.5V9.454h5.88v2.414ZM21.823,7.255q4.589-.179,8.341-.5c.275.442.55.908.837,1.41l1.111-.55a34.955,34.955,0,0,0-2.761-3.956l-1.028.49c.394.5.789,1.028,1.171,1.6-1.9.179-3.86.311-5.892.382a21.555,21.555,0,0,0,2.952-3.37l-1.183-.406q-2.4,3.513-3.764,3.824Z" transform="translate(2614.933 1655.401)" fill="#2680a4"/>
    <rect id="Rectangle_49" data-name="Rectangle 49" width="140" height="36" transform="translate(2515 1640)" fill="none"/>
  </g>
</svg>
