<svg xmlns="http://www.w3.org/2000/svg" width="42.758" height="48" viewBox="0 0 42.758 48">
  <g id="Group_147" data-name="Group 147" transform="translate(-507.589 -1158.072)">
    <path id="Path_1" data-name="Path 1" d="M528.476,1192l-2.993,4.626a4.244,4.244,0,0,1-4.165,1.9l-1.329-.19a2.848,2.848,0,0,0-2.681,1.11l-2.108,2.81a2.479,2.479,0,0,0,1.983,3.966h11.2a1.683,1.683,0,0,1,1.4,2.62l-11.451,17.077a.672.672,0,0,1-1.23-.374v-6.219a6.478,6.478,0,0,1,1.269-3.851l2.185-2.956h-4.591a8.361,8.361,0,0,1-7.338-12.371l1.608-2.944A10,10,0,0,1,519,1192Z" transform="translate(0 -20.144)" fill="#83ae25"/>
    <path id="Path_2" data-name="Path 2" d="M558.689,1192.259l2.628-4.215a4.178,4.178,0,0,1,3.546-1.968h3.152a2.543,2.543,0,0,0,2.177-1.229l1.467-2.432a2.75,2.75,0,0,0-2.187-4.4l-11.431-.053a1.286,1.286,0,0,1-1.061-2l11.874-17.641a.549.549,0,0,1,1,.306v6.638a5.977,5.977,0,0,1-.915,3.178l-2.33,3.71h4.706a8.211,8.211,0,0,1,7.17,12.211l-3.039,4.412a7.916,7.916,0,0,1-6.469,3.425Z" transform="translate(-29.193)" fill="#1e7ab8"/>
  </g>
</svg>
