<svg xmlns="http://www.w3.org/2000/svg" width="38" height="38" viewBox="0 0 38 38">
  <g id="transfer-motorbike" transform="translate(-1378 183)">
    <rect id="Rectangle_55" data-name="Rectangle 55" width="38" height="38" transform="translate(1378 -183)" fill="none"/>
    <g id="Group_143" data-name="Group 143" transform="translate(863 -722.941)">
      <g id="Group_66" data-name="Group 66" transform="translate(534.082 545.941)">
        <g id="Ellipse_34" data-name="Ellipse 34" transform="translate(0 0)">
          <circle id="Ellipse_42" data-name="Ellipse 42" cx="1.571" cy="1.571" r="1.571" fill="#0a84ff"/>
        </g>
      </g>
      <g id="Group_68" data-name="Group 68" transform="translate(525.285 563.671)">
        <g id="Path_25" data-name="Path 25" transform="translate(0 0)">
          <path id="Path_69" data-name="Path 69" d="M556.473,651.65l0,.008.035.009Z" transform="translate(-556.47 -651.65)" fill="#0a84ff"/>
        </g>
      </g>
      <g id="Group_144" data-name="Group 144" transform="translate(525.285 563.671)">
        <g id="Group_143-2" data-name="Group 143" transform="translate(0 0)">
          <path id="Path_70" data-name="Path 70" d="M556.505,651.667l-.035-.009,0-.008Z" transform="translate(-556.47 -651.65)" fill="#0a84ff"/>
        </g>
      </g>
      <g id="Group_145" data-name="Group 145" transform="translate(519 549.317)">
        <path id="Path_71" data-name="Path 71" d="M564.25,655.42l.372.322A3.55,3.55,0,0,0,564.25,655.42Z" transform="translate(-556.653 -640.511)" fill="#0a84ff"/>
        <path id="Path_72" data-name="Path 72" d="M524.031,589.323a3.764,3.764,0,0,1,0-7.527v0a3.631,3.631,0,0,1,.917.117l0-.009.035.019-.039-.01-1.64,3.965.775.33,1.627-3.929.543.267a3.855,3.855,0,0,1,.4.355l.01.01,0,0a3.79,3.79,0,0,1,1.075,2.646A3.739,3.739,0,0,1,524.031,589.323Zm3.715-7.529a9.349,9.349,0,0,0-1.516-.777l.359-.867a1.937,1.937,0,0,0,.461.282l.7.229Zm2.484.792h0v-1.368l1.082.233,1.335.241.807,2.716c-.143-.058-.293-.118-.444-.178A10.174,10.174,0,0,1,530.23,582.586Zm4.27-6.353-1.486.444a1.647,1.647,0,0,0-.958.569l-.646-.042-3.383-.527.744-1.8a.2.2,0,0,1,.118-.113l5.725-2.114.461,2.826A.754.754,0,0,1,534.5,576.234Zm1.307,8.346a1.159,1.159,0,0,1-.346.221c-.106-.676-.3-1.691-.476-2.685l.49.088a1.151,1.151,0,0,1,.907.8A1.6,1.6,0,0,1,535.806,584.58Zm2.965.612h-.017l.018-.041A.166.166,0,0,0,538.772,585.192Zm1.553-1.863,1.838,1.863H539.62A3.788,3.788,0,0,1,540.325,583.329Zm6.708,2.23a3.71,3.71,0,0,1-7.339.823H544.9v-1.19h-1.556l-2.452-2.485a3.67,3.67,0,0,1,2.422-.911v0a3.685,3.685,0,0,1,2.626,1.1A3.789,3.789,0,0,1,547.033,585.559Zm-19.862-9.016-.121-.019-1.451-.566a.728.728,0,0,0-.963.486c-.223.8-.552,1.922-.27,2.119a4.987,4.987,0,0,0,1.826.34l-.758,1.834a5.367,5.367,0,0,0-3.333-.049,5.818,5.818,0,0,0-3.1,2.8l.8.331a4.653,4.653,0,0,0-.332,1.735,4.564,4.564,0,1,0,9.127,0,7.786,7.786,0,0,0,3.473.823h6.759a4.556,4.556,0,0,0,9.03-.34h.825v-1.8s-.909-2.616-2.633-3.125c0,0,.121-.85.792-1.02a6.189,6.189,0,0,1,1.842,0v-.84h-2.848a1.375,1.375,0,0,0-1.509-1.54h-4.909a1.855,1.855,0,0,0,.317-1.343l-.949-6.378a2.52,2.52,0,0,0-2.714-2.155,2.49,2.49,0,0,0-1.1.376,2.545,2.545,0,0,0-.817.836l-1.452,2.422-3.28,1.834-1.2.67" transform="translate(-519 -567.827)" fill="#0a84ff"/>
      </g>
    </g>
  </g>
</svg>
